<svg width="192" height="87" viewBox="0 0 192 87" fill="none" xmlns="http://www.w3.org/2000/svg">
<path d="M22.7252 86.2879C18.5688 86.3576 14.4489 85.5227 10.6662 83.8441C7.52091 82.4436 4.82062 80.2448 2.84848 77.4783C1.13591 75.0603 0.149502 72.2254 0 69.2918V67.3368C0.00322721 66.9251 0.171751 66.531 0.46957 66.2387C0.767389 65.9464 1.17085 65.7792 1.59364 65.7729H7.86785C8.07219 65.7696 8.27519 65.8056 8.46525 65.8788C8.6553 65.9519 8.8287 66.0609 8.97553 66.1993C9.12235 66.3377 9.23975 66.5029 9.32098 66.6855C9.40221 66.8681 9.44569 67.0645 9.44896 67.2635C9.48573 67.9409 9.5738 68.6148 9.71247 69.2796C9.94513 70.5695 10.4702 71.7926 11.2495 72.86C12.0288 73.9274 13.0427 74.8122 14.2174 75.45C16.8736 76.7184 19.8053 77.343 22.7628 77.2705C26.1934 77.4556 29.5716 76.3882 32.2369 74.277C33.4207 73.2081 34.3448 71.8956 34.9417 70.435C35.5387 68.9744 35.7936 67.4026 35.6877 65.8339C35.6877 58.3684 31.3836 54.6661 23.4907 54.6661H15.5224C15.1007 54.663 14.6973 54.4984 14.3991 54.2081C14.101 53.9178 13.932 53.525 13.9288 53.1144L13.7907 48.4347C13.7932 48.0345 13.9347 47.6469 14.1923 47.335L29.6268 28.7627H5.9605C5.5399 28.7532 5.13961 28.5846 4.84448 28.2927C4.54934 28.0007 4.38254 27.6084 4.37939 27.1987V21.3583C4.38254 20.9486 4.54934 20.5563 4.84448 20.2643C5.13961 19.9724 5.5399 19.8038 5.9605 19.7943H40.1424C40.5652 19.8006 40.9687 19.9679 41.2665 20.2601C41.5643 20.5524 41.7329 20.9465 41.7361 21.3583L41.6733 27.4676C41.6656 28.3296 41.3355 29.1593 40.7447 29.8013L25.6866 46.553C26.3517 46.553 32.8392 45.6488 39.6028 51.7581C41.5661 53.6141 43.1103 55.8485 44.1366 58.3184C45.1629 60.7883 45.6488 63.4396 45.5633 66.1027C45.6541 69.8902 44.6449 73.6257 42.6521 76.8796C40.6554 79.918 37.8019 82.3317 34.4329 83.8319C30.778 85.5214 26.7703 86.3621 22.7252 86.2879Z" fill="white" fill-opacity="0.87"/>
<path d="M60.6981 82.72V75.2545C60.6944 74.9422 60.763 74.6331 60.8989 74.3503L77.789 28.9582H52.8177C52.3949 28.9518 51.9915 28.7846 51.6937 28.4924C51.3959 28.2001 51.2273 27.806 51.2241 27.3942V21.3583C51.2273 20.9465 51.3959 20.5524 51.6937 20.2601C51.9915 19.9679 52.3949 19.8006 52.8177 19.7943H87.1249C87.5467 19.8037 87.9484 19.9719 88.2455 20.2635C88.5427 20.5551 88.7122 20.9475 88.7186 21.3583V28.0418C88.7186 28.6499 88.5815 29.2505 88.317 29.8013L68.3777 83.3676C68.2371 83.6299 68.0292 83.8522 67.7741 84.0128C67.5189 84.1734 67.2254 84.2668 66.9221 84.284H62.2039C61.7956 84.2591 61.4124 84.0834 61.1325 83.7927C60.8527 83.5021 60.6973 83.1184 60.6981 82.72Z" fill="white" fill-opacity="0.87"/>
<path d="M107.641 82.72V75.2545C107.643 74.9428 107.712 74.6351 107.842 74.3503L124.694 28.9582H99.7228C99.3 28.9518 98.8966 28.7846 98.5988 28.4924C98.301 28.2001 98.1324 27.806 98.1292 27.3942V21.3583C98.1324 20.9465 98.301 20.5524 98.5988 20.2601C98.8966 19.9679 99.3 19.8006 99.7228 19.7943H134.03C134.453 19.8006 134.856 19.9679 135.154 20.2601C135.452 20.5524 135.621 20.9465 135.624 21.3583V28.0418C135.624 28.6499 135.487 29.2505 135.222 29.8013L115.295 83.3676C115.151 83.6293 114.94 83.8508 114.683 84.0111C114.426 84.1715 114.132 84.2654 113.827 84.284H109.134C108.73 84.2506 108.353 84.0719 108.077 83.7828C107.801 83.4937 107.646 83.1148 107.641 82.72Z" fill="white" fill-opacity="0.87"/>
<path d="M168.617 67.4588C164.44 67.5298 160.299 66.6951 156.495 65.0151C153.069 63.5212 150.168 61.083 148.15 58.0016C146.124 54.8034 145.087 51.1042 145.164 47.347C145.113 43.8835 146.028 40.4715 147.811 37.4744C149.317 35.031 151.41 32.9805 153.91 31.4995C152.013 30.1265 150.431 28.3827 149.267 26.3799C147.909 23.7826 147.228 20.8998 147.284 17.9858C147.179 15.497 147.656 13.0176 148.677 10.734C149.699 8.45041 151.239 6.42217 153.182 4.8019C157.085 1.55176 162.254 0 168.541 0C174.828 0 180.011 1.61285 183.85 4.74081C185.797 6.37103 187.34 8.4098 188.361 10.7039C189.383 12.9979 189.857 15.4876 189.748 17.9858C189.809 20.8939 189.124 23.771 187.753 26.3555C186.626 28.3825 185.069 30.1527 183.185 31.5484C185.69 33.0445 187.8 35.0907 189.347 37.5233C191.165 40.5287 192.082 43.9699 191.994 47.457C192.075 51.2147 191.038 54.915 189.008 58.1116C186.967 61.1587 184.07 63.5716 180.663 65.064C176.869 66.69 172.762 67.5066 168.617 67.4588ZM168.617 36.0937C165.029 35.9666 161.51 37.074 158.678 39.2217C156.455 41.129 155.091 43.8105 154.88 46.6882C154.668 49.5658 155.627 52.409 157.549 54.6048C157.9 54.9954 158.277 55.3628 158.678 55.7045C161.51 57.8525 165.03 58.9561 168.617 58.8203C172.161 58.954 175.637 57.8488 178.417 55.7045C180.64 53.7972 182.004 51.1156 182.215 48.238C182.426 45.3604 181.468 42.5171 179.546 40.3213C179.199 39.9278 178.821 39.5602 178.417 39.2217C175.636 37.0768 172.161 35.9678 168.617 36.0937ZM168.617 8.62632C165.536 8.51232 162.511 9.45501 160.071 11.29C159 12.1034 158.142 13.1516 157.567 14.3491C156.991 15.5467 156.714 16.8597 156.758 18.1812C156.699 19.5031 156.97 20.8191 157.547 22.017C158.124 23.2149 158.99 24.259 160.071 25.0603C162.513 26.8925 165.536 27.8348 168.617 27.724C171.675 27.6994 174.644 26.7185 177.087 24.9259C178.173 24.1559 179.048 23.1384 179.636 21.9626C180.225 20.7868 180.508 19.4885 180.462 18.1812C180.523 16.8586 180.255 15.5411 179.681 14.3412C179.106 13.1413 178.242 12.0944 177.162 11.29C174.722 9.45407 171.698 8.51128 168.617 8.62632Z" fill="white" fill-opacity="0.87"/>
</svg>
